<svg xmlns="http://www.w3.org/2000/svg" xmlns:xlink="http://www.w3.org/1999/xlink">
  <symbol id='home' viewBox="0 0 20 18" fill="none" xmlns="http://www.w3.org/2000/svg">
  <path d="M0.212697 7.04165L9.693 0.100371C9.87581 -0.033457 10.1242 -0.033457 10.3069 0.100371L19.7873 7.04165C20.0188 7.21122 20.0692 7.53638 19.8996 7.76794C19.73 7.9995 19.4048 8.04974 19.1733 7.88024L9.99999 1.16369L0.826681 7.88021C0.734181 7.94798 0.626681 7.9806 0.520119 7.9806C0.360119 7.9806 0.202229 7.90696 0.100432 7.7679C-0.0691769 7.53638 -0.0188647 7.21122 0.212697 7.04165Z" fill="currentColor"/>
  <path d="M2.72486 7.99786C3.01181 7.99786 3.24451 8.23052 3.24451 8.51751V16.7889H7.40161V12.2739C7.40161 10.8411 8.56732 9.67544 10 9.67544C11.4328 9.67544 12.5985 10.8411 12.5985 12.2739V16.789H16.7556V8.51755C16.7556 8.23056 16.9883 7.9979 17.2753 7.9979C17.5622 7.9979 17.7949 8.23056 17.7949 8.51755V17.3087C17.7949 17.5957 17.5622 17.8283 17.2753 17.8283H12.0788C11.8056 17.8283 11.5819 17.6172 11.5612 17.3491C11.56 17.337 11.5592 17.3237 11.5592 17.3087V12.2739C11.5592 11.4142 10.8598 10.7148 10 10.7148C9.14032 10.7148 8.44091 11.4142 8.44091 12.2739V17.3087C8.44091 17.3236 8.44013 17.3367 8.43888 17.3487C8.41841 17.6169 8.1947 17.8283 7.92126 17.8283H2.72482C2.43783 17.8283 2.20518 17.5957 2.20518 17.3087V8.51755C2.20521 8.23052 2.43787 7.99786 2.72486 7.99786Z" fill="currentColor"/>
  </symbol>
  <symbol id="icon_list" viewBox="0 0 20 14" fill="none" xmlns="http://www.w3.org/2000/svg">
  <circle cx="1.75" cy="1.75" r="1.75" fill="currentColor"/>
  <circle cx="1.75" cy="6.75" r="1.75" fill="currentColor"/>
  <circle cx="1.75" cy="11.75" r="1.75" fill="currentColor"/>
  <rect x="7" y="1" width="13" height="1.5" rx="0.75" fill="currentColor"/>
  <rect x="7" y="6" width="13" height="1.5" rx="0.75" fill="currentColor"/>
  <rect x="7" y="11" width="13" height="1.5" rx="0.75" fill="currentColor"/>
  </symbol>
  <symbol id="multiple_users" viewBox="0 0 24 24" fill="none" xmlns="http://www.w3.org/2000/svg">
  <path d="M16.8797 8.3299C16.6765 7.01849 15.9349 5.88711 14.8934 5.16004C15.0266 3.55974 16.3657 2.30188 17.9998 2.30131L16.8797 8.3299ZM16.8797 8.3299C17.2285 8.46525 17.605 8.54077 17.9998 8.54077C19.7231 8.54077 21.1197 7.14409 21.1197 5.42119C21.1197 3.698 19.7231 2.30137 17.9999 2.30131L16.8797 8.3299ZM19.4161 18.0325V17.3271C19.4161 14.9446 17.9589 12.8985 15.8908 12.0287C16.4404 11.3423 16.8031 10.5009 16.9033 9.58098H19.4935C21.7573 9.58098 23.6 11.4236 23.6 13.6875V17.0828L23.5604 17.1028C23.5602 17.1029 23.56 17.103 23.5598 17.1032C23.4824 17.1419 22.0072 17.8707 19.4161 18.0325ZM17.7351 20.7369L17.7342 20.7373C17.6584 20.7759 15.8006 21.6984 12.5651 21.6984C10.9135 21.6984 8.9002 21.4585 6.57651 20.7347V17.3217C6.57651 15.0576 8.41918 13.2147 10.6833 13.2147H13.67C15.9342 13.2147 17.7767 15.0576 17.7759 17.3216V17.3217V20.7162L17.7351 20.7369ZM15.2968 9.05488C15.2968 10.7778 13.9002 12.1748 12.177 12.1748C10.4539 12.1748 9.05648 10.778 9.05648 9.05518C9.05648 7.33234 10.4539 5.9353 12.177 5.9353C13.8999 5.9353 15.2968 7.332 15.2968 9.05488Z" stroke="currentColor" stroke-width="0.8"/>
  </symbol>
  <symbol id="pen" viewBox="0 0 16 16" fill="none" xmlns="http://www.w3.org/2000/svg">
  <path d="M0.739118 13.1691C0.944855 12.5078 1.308 11.9064 1.79719 11.4161L12.1 1.11337C12.2515 0.962025 12.497 0.962025 12.6484 1.11337L12.706 1.17094L13.5201 0.346329C13.7387 0.124836 14.037 0 14.3484 0C14.6597 0 14.958 0.124836 15.1766 0.346329L15.6543 0.830523C16.1018 1.28654 16.0992 2.01753 15.6487 2.47051L14.83 3.28922L15.1312 3.58707C15.4982 3.95006 15.7055 4.4444 15.7069 4.96057C15.7084 5.47673 15.504 5.97213 15.139 6.33725L12.035 9.44118C11.8835 9.59268 11.6379 9.59268 11.4864 9.44118C11.335 9.28983 11.335 9.04425 11.4865 8.89275L14.5905 5.78866C15.0347 5.34462 15.046 4.62802 14.6162 4.17019L9.97304 8.81336L9.1251 9.66146L8.57636 10.2099L4.58373 14.2025C4.09363 14.6919 3.49202 15.0549 2.83073 15.2607L0.502627 15.9826C0.365216 16.0252 0.215383 15.9883 0.113575 15.8864C0.011767 15.7846 -0.025199 15.6348 0.0173725 15.4972L0.739118 13.1691ZM15.1021 1.37532L14.6245 0.891123C14.5517 0.817191 14.4521 0.77568 14.3484 0.77568C14.2446 0.77568 14.145 0.817191 14.0722 0.891123L13.2545 1.71937L14.2784 2.74351L15.1003 1.92193C15.2504 1.77104 15.2513 1.52727 15.1021 1.37532ZM14.0635 3.6257L12.3742 1.93617L8.25806 6.05227L9.94759 7.7418L14.0635 3.6257ZM9.39901 8.29023L7.70963 6.6007L6.88684 7.4235L8.57636 9.11303L9.39901 8.29023ZM8.02778 9.66146L6.33826 7.97193L2.34578 11.9646C2.30548 12.005 2.26624 12.0465 2.22806 12.0889L3.91092 13.7718C3.95319 13.7335 3.99485 13.6942 4.035 13.6541L8.02778 9.66146ZM2.6009 14.5198C2.83436 14.4472 3.05949 14.3504 3.2728 14.2307L1.76917 12.7271C1.64948 12.9402 1.55252 13.1655 1.47995 13.399L0.976216 15.0235L2.6009 14.5198Z" fill="currentColor"/>
  </symbol>
  <symbol id="profil" viewBox="0 0 14 19" fill="none" xmlns="http://www.w3.org/2000/svg">
  <path d="M13.2758 13.3443V17.0508L13.2074 17.0842L13.2066 17.0847C13.1155 17.1294 11.016 18.1353 7.36371 18.1353C5.49408 18.1353 3.21526 17.8723 0.585801 17.0787C0.585728 17.0786 0.585655 17.0786 0.585581 17.0786L0.576514 17.0758V13.3443C0.576514 10.8775 2.65874 8.84623 5.24664 8.84623H8.60673C11.1947 8.84623 13.2768 10.8775 13.2758 13.3442V13.3443ZM10.4869 4.36026C10.4869 6.23892 8.90639 7.7855 6.92702 7.7855C4.94782 7.7855 3.36648 6.23909 3.36648 4.36058C3.36648 2.48203 4.94787 0.935339 6.92702 0.935339C8.90613 0.935339 10.4869 2.48167 10.4869 4.36026Z" stroke="currentColor" stroke-width="0.8"/>
  </symbol>
  <symbol id="menu" xmlns:xlink="http://www.w3.org/1999/xlink" x="0px" y="0px"
	 viewBox="0 0 512 512" style="enable-background:new 0 0 512 512;">
		<path d="M501.333,96H10.667C4.779,96,0,100.779,0,106.667s4.779,10.667,10.667,10.667h490.667c5.888,0,10.667-4.779,10.667-10.667
			S507.221,96,501.333,96z"/>
		<path d="M501.333,245.333H10.667C4.779,245.333,0,250.112,0,256s4.779,10.667,10.667,10.667h490.667
			c5.888,0,10.667-4.779,10.667-10.667S507.221,245.333,501.333,245.333z"/>
		<path d="M501.333,394.667H10.667C4.779,394.667,0,399.445,0,405.333C0,411.221,4.779,416,10.667,416h490.667
			c5.888,0,10.667-4.779,10.667-10.667C512,399.445,507.221,394.667,501.333,394.667z"/>
</symbol>

  <symbol id='plus' viewBox="0 0 40 40" fill="none" xmlns="http://www.w3.org/2000/svg">
    <path d="M20 0C8.97231 0 0 8.97154 0 20C0 31.0285 8.97231 40 20 40C31.0277 40 40 31.0285 40 20C40 8.97154 31.0277 0 20 0ZM29.6154 21.5385H21.5385V30C21.5385 30.8492 20.8492 31.5385 20 31.5385C19.1508 31.5385 18.4615 30.8492 18.4615 30V21.5385H10.3846C9.53538 21.5385 8.84615 20.8492 8.84615 20C8.84615 19.1508 9.53538 18.4615 10.3846 18.4615H18.4615V10.7692C18.4615 9.92 19.1508 9.23077 20 9.23077C20.8492 9.23077 21.5385 9.92 21.5385 10.7692V18.4615H29.6154C30.4646 18.4615 31.1538 19.1508 31.1538 20C31.1538 20.8492 30.4646 21.5385 29.6154 21.5385Z" fill="#03CEA4"/>
  </symbol>

</svg>
